<svg xmlns="http://www.w3.org/2000/svg" width="23.999" height="24" viewBox="0 0 23.999 24">
  <defs>
    <style>
      .cls-1 {
        fill: #75787b;
      }
    </style>
  </defs>
  <path id="icon-linkedin" class="cls-1" d="M12,24A12,12,0,0,1,3.514,3.515,12,12,0,0,1,20.485,20.485,11.92,11.92,0,0,1,12,24Zm2.482-12.377c1.446,0,1.446,1.371,1.446,2.372v4.359H18.7V13.435a5.635,5.635,0,0,0-.61-3.033,2.934,2.934,0,0,0-2.72-1.227,2.94,2.94,0,0,0-2.631,1.446H12.7V9.4H10.038v8.954h2.776V13.919C12.814,12.783,13.012,11.623,14.482,11.623ZM5.515,9.4v8.954h2.78V9.4ZM6.9,4.942a1.618,1.618,0,1,0,1.61,1.609A1.612,1.612,0,0,0,6.9,4.942Z"/>
</svg>
