<svg xmlns="http://www.w3.org/2000/svg" width="23.999" height="24" viewBox="0 0 23.999 24">
  <path id="icon-youtube" d="M12,24A12,12,0,0,1,3.514,3.515,12,12,0,0,1,20.485,20.485,11.92,11.92,0,0,1,12,24ZM12,6.54a46.228,46.228,0,0,0-6.067.327A1.949,1.949,0,0,0,4.56,8.25a20.453,20.453,0,0,0-.326,3.761,20.453,20.453,0,0,0,.326,3.761,1.908,1.908,0,0,0,1.373,1.36A46.228,46.228,0,0,0,12,17.46a46.218,46.218,0,0,0,6.067-.327,1.915,1.915,0,0,0,1.374-1.36,20.587,20.587,0,0,0,.324-3.761A20.587,20.587,0,0,0,19.44,8.25a1.954,1.954,0,0,0-1.374-1.383A46.218,46.218,0,0,0,12,6.54Zm-1.589,7.78h0V9.7l4.06,2.309L10.413,14.32Z" fill="#fff"/>
</svg>
