<svg xmlns="http://www.w3.org/2000/svg" width="23.999" height="24" viewBox="0 0 23.999 24">
  <path id="icon-glassdoor" d="M12,24A12,12,0,0,1,3.514,3.515,12,12,0,0,1,20.485,20.485,11.92,11.92,0,0,1,12,24ZM6.455,17.547A2.219,2.219,0,0,0,8.67,19.766h6.657a2.221,2.221,0,0,0,2.219-2.218V8.436a.081.081,0,0,0-.082-.081H15.407a.08.08,0,0,0-.08.081v9.111ZM8.67,4.236A2.219,2.219,0,0,0,6.455,6.454v9.11a.08.08,0,0,0,.079.081H8.591a.081.081,0,0,0,.082-.081V6.454h8.874a2.221,2.221,0,0,0-2.217-2.218Z" fill="#fff"/>
</svg>
