<svg xmlns="http://www.w3.org/2000/svg" width="23.999" height="24" viewBox="0 0 23.999 24">
  <path id="icon-twitter" d="M12,24A12,12,0,0,1,3.514,3.515,12,12,0,0,1,20.485,20.485,11.92,11.92,0,0,1,12,24ZM4.587,17.489h0A9.437,9.437,0,0,0,9.7,18.982a9.588,9.588,0,0,0,4.061-.861A8.961,8.961,0,0,0,16.726,15.9a9.8,9.8,0,0,0,2.44-6.384c0-.142,0-.288-.012-.432a7.134,7.134,0,0,0,1.67-1.72,6.679,6.679,0,0,1-1.915.515,3.313,3.313,0,0,0,1.462-1.835,6.592,6.592,0,0,1-2.112.8A3.331,3.331,0,0,0,12.5,9.124a3.82,3.82,0,0,0,.082.761A9.481,9.481,0,0,1,5.721,6.4a3.289,3.289,0,0,0-.454,1.679,3.325,3.325,0,0,0,1.484,2.77,3.362,3.362,0,0,1-1.5-.421v.04a3.331,3.331,0,0,0,2.668,3.266,3.556,3.556,0,0,1-.874.113A4.243,4.243,0,0,1,6.41,13.8a3.337,3.337,0,0,0,3.113,2.307A6.638,6.638,0,0,1,5.392,17.53,6.893,6.893,0,0,1,4.587,17.489Z" fill="#fff"/>
</svg>
