<svg xmlns="http://www.w3.org/2000/svg" width="217.579" height="36.301" viewBox="0 0 217.579 36.301">
  <g id="Group_13" data-name="Group 13" transform="translate(0.576 0.531)">
    <rect id="Rectangle_48" data-name="Rectangle 48" width="211.384" height="35.269" transform="translate(0 0)" fill="#fff" opacity="0"/>
    <path id="Logo-White" d="M.707,22.264A16.658,16.658,0,0,1,2.9,8.091,17.743,17.743,0,0,1,25.845,1.938a8.713,8.713,0,0,0-6.083,4.014l-.067.109A2.987,2.987,0,0,1,16.69,7.434,12.632,12.632,0,1,0,27.3,21.66a3.5,3.5,0,0,1,2.5-2.822,8.621,8.621,0,0,0,2.641-1.358,8.719,8.719,0,0,0,2.149-2.366,8.548,8.548,0,0,0,.509-.976A17.676,17.676,0,0,1,.707,22.264ZM7.291,27.5A12.149,12.149,0,0,1,8.742,9.428c.053-.04.109-.072.161-.11A12.956,12.956,0,0,0,9.6,24.34a13.59,13.59,0,0,0,12.85,5.1A12.185,12.185,0,0,1,7.291,27.5Zm61.6,3.1V27.719a4.2,4.2,0,0,0,1.735.3c.761,0,1.591-.2,2.652-2.546L66.159,10.735H69.4l5.319,11.442,4.617-11.442h3.113L75.921,26.323c-1.313,3.123-2.921,4.455-5.375,4.455A7.115,7.115,0,0,1,68.894,30.6ZM183.053,18.565v-.056a8.02,8.02,0,0,1,7.913-8.105,8.137,8.137,0,0,1,6.161,2.82l-2.036,2.031a5.679,5.679,0,0,0-4.153-2.091,5.066,5.066,0,0,0-4.933,5.29v.055a5.146,5.146,0,0,0,5.043,5.347,5.542,5.542,0,0,0,4.158-2.095l2.053,1.817a7.885,7.885,0,0,1-6.294,3.038A7.992,7.992,0,0,1,183.053,18.565Zm-32.871-.027v-.056c0-4.53,3.257-8.078,7.417-8.078,4.237,0,7.2,3.334,7.2,8.106v.056a3.844,3.844,0,0,1-.033.589l-.081.654H153.211a4.713,4.713,0,0,0,4.662,4.048,5.571,5.571,0,0,0,4.28-1.969l2.029,1.844a8.159,8.159,0,0,1-6.364,2.885C153.465,26.616,150.181,23.143,150.181,18.538Zm3.038-1.436h8.524c-.367-1.988-1.631-3.965-4.2-3.965A4.573,4.573,0,0,0,153.219,17.1Zm-60.2,1.463V18.51a7.969,7.969,0,1,1,15.936-.055v.055a7.969,7.969,0,1,1-15.936.056Zm2.953-.11v.055a5.146,5.146,0,0,0,5.042,5.346A5.033,5.033,0,0,0,106,18.565V18.51a5.146,5.146,0,0,0-5.042-5.346A5.033,5.033,0,0,0,95.969,18.455ZM46.724,15.946v-.055a10.452,10.452,0,0,1,10.4-10.725,10.962,10.962,0,0,1,8,3.283l-2.043,2.134a8.149,8.149,0,0,0-5.987-2.629c-4.211,0-7.386,3.388-7.386,7.881v.056c0,4.451,3.256,7.937,7.413,7.937a8.114,8.114,0,0,0,6.119-2.79l2.013,2a10.944,10.944,0,0,1-8.187,3.578C51.17,26.616,46.724,22.029,46.724,15.946Zm152.829,8.407L199,23.9l1.677-2.257.6.462a7.48,7.48,0,0,0,4.591,1.692c1.557,0,2.644-.792,2.644-1.928v-.055c0-1.007-1.116-1.513-3.177-2.093l-.123-.036c-2.336-.675-5.244-1.515-5.244-4.542v-.055c0-2.685,2.261-4.633,5.377-4.633a10.29,10.29,0,0,1,5.4,1.669l.607.4-1.513,2.387-.635-.418a7.284,7.284,0,0,0-3.917-1.283c-1.444,0-2.452.7-2.452,1.707v.055c0,.886,1.088,1.354,3.374,2.012,1.808.507,5.172,1.45,5.172,4.659v.055c0,2.812-2.354,4.853-5.6,4.853A10.466,10.466,0,0,1,199.554,24.353ZM167.1,21.928V6.368h2.843v4.367h4.535l-.785,2.732h-3.751V21.79c0,1.371.637,1.983,2.065,1.983a4.037,4.037,0,0,0,1.763-.43l1.051-.471v2.9l-.434.2a5.918,5.918,0,0,1-2.6.565A4.355,4.355,0,0,1,167.1,21.928Zm-83.063,0V6.368h2.843v4.367h4.536l-.785,2.732H86.883V21.79c0,1.371.637,1.983,2.065,1.983a4.033,4.033,0,0,0,1.762-.43l1.051-.471v2.9l-.434.2a5.92,5.92,0,0,1-2.6.565A4.355,4.355,0,0,1,84.04,21.928Zm93.672,4.3V10.735h2.843V26.227Zm-50.029,0V10.735h2.843V26.227Zm17.633,0v-9.04c0-2.573-1.355-4.05-3.719-4.05a4.065,4.065,0,0,0-4.132,4.27v8.819h-2.844V10.735h2.844v1.24a6.333,6.333,0,0,1,4.326-1.571c3.869,0,6.369,2.565,6.369,6.534v9.289Zm-23.811,0-6.912-8.653,6.676-6.9h3.893l-6.932,7.025,6.9,8.532Zm-9.849,0V6.368H114.5V26.227ZM24.3,15.174a5.457,5.457,0,1,1,7.994-2.78,5.423,5.423,0,0,1-5.057,3.591h-.075A5.415,5.415,0,0,1,24.3,15.174ZM177.31,7.2a1.823,1.823,0,1,1,1.823,1.823A1.825,1.825,0,0,1,177.31,7.2Zm-50.029,0A1.823,1.823,0,1,1,129.1,9.024,1.825,1.825,0,0,1,127.282,7.2Z" transform="translate(0 0)" fill="#fff" stroke="rgba(0,0,0,0)" stroke-miterlimit="10" stroke-width="1"/>
    <path id="_R_" data-name="(R)" d="M2504.93,78.355a2.31,2.31,0,0,1,.306-1.157,2.27,2.27,0,0,1,.851-.851,2.339,2.339,0,0,1,2.315,0,2.269,2.269,0,0,1,.851.851,2.313,2.313,0,0,1,.306,1.157,2.251,2.251,0,0,1-.306,1.14,2.225,2.225,0,0,1-.834.851,2.294,2.294,0,0,1-2.349,0,2.112,2.112,0,0,1-.834-.851A2.3,2.3,0,0,1,2504.93,78.355Zm.374,0a1.876,1.876,0,0,0,.255.97,2.054,2.054,0,0,0,.715.715,1.97,1.97,0,0,0,.97.255,1.877,1.877,0,0,0,.97-.255,1.917,1.917,0,0,0,.715-.715,1.878,1.878,0,0,0,.255-.97,1.923,1.923,0,0,0-.255-.97,1.8,1.8,0,0,0-.715-.715,1.971,1.971,0,0,0-1.94,0,2.007,2.007,0,0,0-.715.7A2.183,2.183,0,0,0,2505.3,78.355Zm2.876-.562a.688.688,0,0,1-.477.715l.732,1.225h-.647l-.6-1.072h-.272v1.072h-.579V76.942h.8a1.232,1.232,0,0,1,.783.2.78.78,0,0,1,.255.647Zm-1.26.426h.2a.48.48,0,0,0,.341-.1.365.365,0,0,0,.119-.306c0-.153-.034-.255-.119-.306a.65.65,0,0,0-.357-.085h-.2v.8Z" transform="translate(-2292.556 -70.529)" fill="#fff"/>
  </g>
</svg>
