<svg xmlns="http://www.w3.org/2000/svg" width="297.691" height="48.338" viewBox="0 0 297.691 48.338">
  <g id="Cytokinetics_Logo_V_RGB-Horizontal" transform="translate(1.477 -267.552)">
    <g id="XMLID_2638_" transform="translate(62.873 274.341)">
      <path id="XMLID_2673_" d="M282.58,165.5H278.7v21.3c0,3.8,2.511,6.314,6.467,6.314a8.165,8.165,0,0,0,3.576-.761l.609-.3V188.1l-1.445.685a5.011,5.011,0,0,1-2.435.609c-1.978,0-2.815-.837-2.815-2.739V175.238h5.173l1.065-3.728h-6.238l-.076-6.01Z" transform="translate(-227.499 -163.826)" fill="#75787b"/>
      <path id="XMLID_2670_" d="M305.755,172.8A10.9,10.9,0,0,0,294.8,183.907v.076a10.918,10.918,0,1,0,21.835-.076v-.076A10.863,10.863,0,0,0,305.755,172.8Zm6.847,11.107v.076a6.912,6.912,0,0,1-6.847,7.227,7.039,7.039,0,0,1-6.923-7.3v-.076a6.911,6.911,0,0,1,6.847-7.227A7.039,7.039,0,0,1,312.6,183.907Z" transform="translate(-231.35 -165.573)" fill="#75787b"/>
      <path id="XMLID_2669_" d="M0,0H3.88V21.226H0Z" transform="translate(110.999 7.684)" fill="#75787b"/>
      <path id="XMLID_2667_" d="M379.614,172.8a9,9,0,0,0-5.934,2.13v-1.674H369.8v21.226h3.88v-12.1a5.554,5.554,0,0,1,5.706-5.858c3.271,0,5.1,2.054,5.1,5.554v12.4h3.88V181.777C388.363,176.3,384.94,172.8,379.614,172.8Z" transform="translate(-249.292 -165.573)" fill="#75787b"/>
      <path id="XMLID_2656_" d="M407.995,172.8c-5.706,0-10.195,4.869-10.195,11.107v.076c0,6.315,4.489,11.107,10.5,11.107a11.345,11.345,0,0,0,8.749-3.956l-2.815-2.511a7.761,7.761,0,0,1-5.858,2.739,6.5,6.5,0,0,1-6.391-5.554h15.748l.076-.913a3.41,3.41,0,0,0,.076-.837v-.076C417.885,177.365,413.776,172.8,407.995,172.8Zm-6.01,9.206c.685-3.2,3.043-5.4,5.934-5.4,3.5,0,5.249,2.739,5.782,5.4Z" transform="translate(-255.99 -165.573)" fill="#75787b"/>
      <path id="XMLID_2655_" d="M432.28,165.5H428.4v21.3c0,3.8,2.511,6.314,6.467,6.314a8.165,8.165,0,0,0,3.576-.761l.609-.3V188.1l-1.445.685a5.011,5.011,0,0,1-2.435.609c-1.978,0-2.815-.837-2.815-2.739V175.238h5.173l1.065-3.728h-6.238l-.076-6.01Z" transform="translate(-263.31 -163.826)" fill="#75787b"/>
      <path id="XMLID_2654_" d="M473.761,188.42a7.625,7.625,0,0,1-5.706,2.891,7.039,7.039,0,0,1-6.923-7.3v-.076A6.9,6.9,0,0,1,467.9,176.7a7.756,7.756,0,0,1,5.706,2.891l2.815-2.815a10.959,10.959,0,0,0-19.324,7.227v.076a10.959,10.959,0,0,0,10.879,11.031c3.424,0,6.086-1.293,8.6-4.184Z" transform="translate(-270.175 -165.597)" fill="#75787b"/>
      <path id="XMLID_2653_" d="M495.666,181.9c-3.119-.913-4.641-1.522-4.641-2.739v-.076c0-1.369,1.369-2.358,3.347-2.358a10.082,10.082,0,0,1,5.4,1.75l.837.609,2.054-3.271-.837-.533a13.8,13.8,0,0,0-7.38-2.282c-4.26,0-7.38,2.663-7.38,6.391v.076c0,4.108,3.956,5.326,7.227,6.238l.152.076c2.815.837,4.336,1.522,4.336,2.891v.076c0,1.6-1.522,2.663-3.652,2.663a10.042,10.042,0,0,1-6.314-2.358l-.837-.609-2.282,3.119.761.609a14.542,14.542,0,0,0,8.521,3.043c4.489,0,7.684-2.815,7.684-6.695v-.3C502.742,183.879,498.177,182.586,495.666,181.9Z" transform="translate(-277.017 -165.62)" fill="#75787b"/>
      <path id="XMLID_2652_" d="M0,0H3.88V27.236H0Z" transform="translate(89.012 1.674)" fill="#75787b"/>
      <path id="XMLID_2647_" d="M348.155,173.3h-5.325l-9.129,9.434,9.434,11.868h5.021l-9.51-11.716Z" transform="translate(-240.656 -165.692)" fill="#75787b"/>
      <path id="XMLID_2644_" d="M0,0H3.88V21.226H0Z" transform="translate(179.545 7.684)" fill="#75787b"/>
      <path id="XMLID_2641_" d="M2.511,0A2.511,2.511,0,1,1,0,2.511,2.511,2.511,0,0,1,2.511,0Z" transform="translate(110.466 0.305)" fill="#75787b"/>
      <path id="XMLID_2640_" d="M449.211,163.7a2.511,2.511,0,1,0,2.511,2.511A2.533,2.533,0,0,0,449.211,163.7Z" transform="translate(-267.687 -163.396)" fill="#75787b"/>
      <path id="XMLID_2634_" d="M264.431,173.4l-6.315,15.672-7.3-15.672H246.4l9.738,20.237c-1.445,3.2-2.587,3.5-3.652,3.5a6.333,6.333,0,0,1-2.358-.38v3.956a10.54,10.54,0,0,0,2.282.228c3.347,0,5.554-1.826,7.38-6.086l8.977-21.378-4.336-.076Z" transform="translate(-219.772 -165.716)" fill="#75787b"/>
      <path id="XMLID_2633_" d="M234,185.135c-2.739,2.739-5.173,3.8-8.369,3.8-5.706,0-10.195-4.793-10.195-10.879v-.076c0-6.162,4.336-10.8,10.118-10.8a11.254,11.254,0,0,1,8.216,3.576l2.815-2.967a14.967,14.967,0,0,0-10.955-4.489c-7.988,0-14.227,6.467-14.227,14.683v.076c0,8.369,6.086,14.607,14.151,14.607,5.478,0,8.749-2.511,11.26-4.869Z" transform="translate(-211.4 -163.3)" fill="#75787b"/>
    </g>
    <g id="icon" transform="translate(-1.477 267.552)">
      <path id="XMLID_2637_" d="M370.784,97.665a11.514,11.514,0,0,1-2.95,3.213,11.048,11.048,0,0,1-3.606,1.836,4.81,4.81,0,0,0-3.409,3.868,17.072,17.072,0,0,1-7.933,12.26,17.331,17.331,0,1,1-6.688-31.8,4.023,4.023,0,0,0,4.131-1.9l.066-.131a10.1,10.1,0,0,1,1.508-1.9,12.2,12.2,0,0,1,4.917-3.147c.656-.2,1.311-.328,1.967-.459a24.318,24.318,0,0,0-31.471,8.458,22.91,22.91,0,0,0-3.016,19.407c5.311,17.44,25.045,22.751,38.027,12.916a24.1,24.1,0,0,0,9.113-24.062A5.738,5.738,0,0,1,370.784,97.665Z" transform="translate(-323.347 -76.844)" fill="#97d700"/>
      <path id="XMLID_2636_" d="M373.914,88a7.319,7.319,0,0,0-3.082,1.967,14.409,14.409,0,0,0-.918,1.18,7.632,7.632,0,0,0-.393,7.212,6.726,6.726,0,0,0,2.819,3.081,7.392,7.392,0,0,0,4,1.115,7.533,7.533,0,0,0,6.294-3.54,6.566,6.566,0,0,0,.656-1.377,8.508,8.508,0,0,0,.393-3.606,7.645,7.645,0,0,0-3.475-5.311A7.408,7.408,0,0,0,373.914,88Z" transform="translate(-338.999 -80.551)" fill="#75787b"/>
      <path id="XMLID_2413_" d="M354.468,125.3a9.589,9.589,0,0,0,.852-.59,18.524,18.524,0,0,1-18.1-29.307,18.664,18.664,0,0,0-2.426,1.508,17.292,17.292,0,0,0-2.032,25.767A17.466,17.466,0,0,0,354.468,125.3Z" transform="translate(-324.929 -83.234)" fill="#75787b"/>
    </g>
    <path id="_R_" data-name="(R)" d="M2504.93,79.214a3.167,3.167,0,0,1,.42-1.587,3.11,3.11,0,0,1,1.167-1.167,3.208,3.208,0,0,1,3.174,0,3.111,3.111,0,0,1,1.167,1.167,3.169,3.169,0,0,1,.42,1.587,3.084,3.084,0,0,1-.42,1.564,3.051,3.051,0,0,1-1.143,1.167,3.147,3.147,0,0,1-3.221,0,2.9,2.9,0,0,1-1.143-1.167A3.146,3.146,0,0,1,2504.93,79.214Zm.513,0a2.575,2.575,0,0,0,.35,1.33,2.814,2.814,0,0,0,.98.98,2.7,2.7,0,0,0,1.33.35,2.575,2.575,0,0,0,1.331-.35,2.634,2.634,0,0,0,.98-.98,2.577,2.577,0,0,0,.35-1.33,2.638,2.638,0,0,0-.35-1.33,2.475,2.475,0,0,0-.98-.98,2.7,2.7,0,0,0-2.661,0,2.752,2.752,0,0,0-.98.957A2.993,2.993,0,0,0,2505.443,79.214Zm3.944-.77a.944.944,0,0,1-.653.98l1,1.68h-.887l-.816-1.47h-.374V81.1h-.794V77.277h1.1a1.689,1.689,0,0,1,1.074.28,1.069,1.069,0,0,1,.35.887Zm-1.727.583h.28a.657.657,0,0,0,.467-.14.5.5,0,0,0,.163-.42c0-.21-.047-.35-.163-.42a.889.889,0,0,0-.49-.117h-.28v1.1Z" transform="translate(-2215.063 198.672)" fill="#75787b"/>
  </g>
</svg>
