<svg xmlns="http://www.w3.org/2000/svg" xmlns:xlink="http://www.w3.org/1999/xlink" width="555" height="219.232" viewBox="0 0 555 219.232">
  <defs>
    <clipPath id="clip-path">
      <rect id="Rectangle_1024" data-name="Rectangle 1024" width="129.638" height="179.788" fill="#97d700"/>
    </clipPath>
  </defs>
  <g id="Group_2657" data-name="Group 2657" transform="translate(-147 -1210)">
    <text id="Copy" transform="translate(147 1358.536)" fill="#97d700" font-size="80" font-family="OpenSans-Extrabold, Open Sans" font-weight="800" letter-spacing="-0.03em"><tspan x="0" y="0">1 person</tspan></text>
    <text id="Copy-2" data-name="Copy" transform="translate(147 1242)" fill="#0b3a40" font-size="30" font-family="OpenSans-Semibold, Open Sans" font-weight="600"><tspan x="0" y="0">CARDIOVASCULAR</tspan><tspan x="0" y="35">DISEASES KILL</tspan></text>
    <text id="Copy-3" data-name="Copy" transform="translate(251.226 1402.99)" fill="#0b3a40" font-size="32" font-family="OpenSans-Semibold, Open Sans" font-weight="600" letter-spacing="-0.03em"><tspan x="0" y="0">EVERY</tspan><tspan y="0" font-family="OpenSans-Bold, Open Sans" font-weight="700"> </tspan><tspan y="0" font-family="OpenSans-Extrabold, Open Sans" font-weight="800">14 SECONDS</tspan></text>
    <path id="Path_3520" data-name="Path 3520" d="M194.431,1331.78v36.808H614.179V1348.7" transform="translate(23.191 59.543)" fill="none" stroke="#97d700" stroke-width="2.2"/>
    <path id="Path_3524" data-name="Path 3524" d="M544.466,1232.383V1215.3H337.01" transform="translate(92.904 6.24)" fill="none" stroke="#97d700" stroke-width="2.2"/>
    <g id="Group_3760" data-name="Group 3760" transform="translate(572.362 1235.359)">
      <g id="Group_3762" data-name="Group 3762" clip-path="url(#clip-path)">
        <path id="Path_3525" data-name="Path 3525" d="M127.623,145.6a1.727,1.727,0,0,1-1.78-1.486,3.737,3.737,0,0,1-.124-1.024c.3-10.078-1.418-20.062-3.081-29.717q-.365-2.116-.723-4.233c-1.66-9.883-2.232-17.478-1.852-24.626a38.518,38.518,0,0,0-3.75-19.026,31.359,31.359,0,0,0-8.43-10.695,2.911,2.911,0,0,0-1.691-.692,1.5,1.5,0,0,0-.274.025,67.77,67.77,0,0,0-14.933,4.331l-.93.4.7.734c.541.567,1.074,1.114,1.6,1.652,1.1,1.133,2.143,2.2,3.131,3.324a57.844,57.844,0,0,1,13.126,25.087,5.169,5.169,0,0,0,1.627,2.425c.813.721,1.669,1.41,2.5,2.075,1.017.817,2.068,1.662,3.022,2.558a2.586,2.586,0,0,1,.949,1.724,1.831,1.831,0,0,1-.576,1.32,1.665,1.665,0,0,1-1.206.612,3,3,0,0,1-1.842-.923c-.389-.345-.774-.7-1.261-1.137l-2.1-1.9v1.592c0,.835.007,1.626.013,2.386.014,1.616.027,3.143-.033,4.632-.054,1.351-.759,2.19-1.839,2.19a2.223,2.223,0,0,1-.382-.033c-1.132-.193-1.627-.857-1.655-2.217-.018-.849-.025-1.7-.031-2.547a70.807,70.807,0,0,0-.32-7.393,59.394,59.394,0,0,0-1.246-6.55c-.221-.962-.443-1.933-.646-2.917l-.279-1.348-.933,1.013c-.82.889-1.605,1.751-2.371,2.592-1.751,1.923-3.4,3.738-5.113,5.483a2.744,2.744,0,0,1-1.853.977,1.813,1.813,0,0,1-1.315-.638c-.985-1.031-.229-2.333.58-3.243,2.628-2.96,4.733-5.445,6.625-7.82a4.74,4.74,0,0,0,.221-6.307c-1.459-1.978-2.794-3.99-4.206-6.121-.6-.905-1.2-1.816-1.821-2.727L91.826,65.5v2.308c0,1.055.042,2.08.081,3.069a28.438,28.438,0,0,1-.154,5.882A12.181,12.181,0,0,1,79.826,86.5H79.69a12.711,12.711,0,0,1-12.081-9.329c-.235-.942-.429-1.921-.615-2.869-.217-1.1-.441-2.234-.737-3.345-1.95-7.318-5.987-10.873-13.5-11.883-.778-.1-1.558-.19-2.442-.288l-2.041-.23-.14.619q-.374,1.656-.757,3.293c-.548,2.36-1.114,4.8-1.6,7.207A12.585,12.585,0,0,1,33.549,80.095a13.187,13.187,0,0,1-5.908-1.428,12.667,12.667,0,0,1-6.534-13.326,9.1,9.1,0,0,0,.17-2.782l-.219-1.848L20,62.239c-.209.3-.424.6-.638.892-.472.651-.96,1.322-1.383,2.036a53.343,53.343,0,0,0-7.306,30.852c.1,1.829.315,3.673.518,5.455.113,1,.226,2,.323,3,.212,2.206-.75,2.606-1.492,2.716a2.56,2.56,0,0,1-.381.029c-1.063,0-1.725-.754-1.969-2.245C5.1,89.2,7.354,75.584,14.564,63.333c.543-.923,1.153-1.828,1.8-2.786.321-.477.653-.968.994-1.488l.718-1.1-3.951.006c-.477,0-.942,0-1.406-.008A12.547,12.547,0,0,1,.37,48.325,12.164,12.164,0,0,1,6.8,34.441,15.62,15.62,0,0,1,13.1,32.948c2.845-.1,5.935-.152,9.726-.152,2.2,0,4.406.016,6.608.032l2.191.015a3.464,3.464,0,0,0,3.222-1.624,11.305,11.305,0,0,1,2.222-2.67c2.621-2.049,2.218-4.345,1.477-6.32a97.353,97.353,0,0,1-2.85-9.38,8.766,8.766,0,0,1,.95-7.019,8.933,8.933,0,0,1,6.07-3.9,7.491,7.491,0,0,1,1.336-.119,8.436,8.436,0,0,1,7.727,5.2c.647,1.648,1.172,3.391,1.679,5.078.244.812.488,1.623.747,2.429a2.565,2.565,0,0,0,1,1.437l1.119.8V15.378c0-.735-.006-1.47-.013-2.2-.013-1.6-.028-3.244.026-4.857A8.476,8.476,0,0,1,62.338.4,8.548,8.548,0,0,1,71.8,3.477a9.535,9.535,0,0,1,1.766,6.056l0,.409a28.569,28.569,0,0,0,.392,5.387l1.37.07.672-2.208c.5-1.644,1-3.287,1.516-4.924a8.533,8.533,0,0,1,7.034-6.319A7.972,7.972,0,0,1,86,1.817,8.639,8.639,0,0,1,92.632,5.09,7.987,7.987,0,0,1,94.3,11.815c-.614,2.792-1.493,5.591-2.343,8.3-.189.6-.38,1.207-.566,1.811a2.58,2.58,0,0,0,.892,3.158c.8.651,1.569,1.385,2.314,2.1.677.646,1.378,1.315,2.113,1.935a3.454,3.454,0,0,0,2.07.754,2.309,2.309,0,0,0,.3-.019c1.78-.231,3.577-.52,5.315-.8,1.312-.21,2.623-.421,3.938-.61a14.108,14.108,0,0,1,2.009-.144,12.544,12.544,0,0,1,12.431,9.273c1.633,6.664-1.733,12.744-8.375,15.13-.193.069-.379.154-.6.255l-.323.147-.845.373.582.718c.356.439.709.865,1.055,1.284.732.884,1.423,1.719,2.075,2.589a38.728,38.728,0,0,1,7.5,21.1,47.1,47.1,0,0,1,.079,6.085c-.542,9.5,1.061,18.84,2.613,27.878,1.643,9.577,3.342,19.478,3.069,29.5l0,.368a5.916,5.916,0,0,1-.056.941,1.783,1.783,0,0,1-1.86,1.665ZM64.291,40.607a7.609,7.609,0,0,0-2.821.556c-5.875,2.335-8.393,7.324-11.058,12.605L49.9,54.786l1.763.227c.439.059.786.1,1.133.139,8.355.822,13.913,5.073,16.518,12.636A42.234,42.234,0,0,1,70.6,72.882c.2.949.4,1.93.64,2.89a8.337,8.337,0,0,0,6.537,6.556,9.143,9.143,0,0,0,2,.224,8.571,8.571,0,0,0,6.546-2.987,8.159,8.159,0,0,0,1.837-6.691,83.688,83.688,0,0,0-2.6-10.392c-.243-.82-.485-1.638-.721-2.456-.616-2.135-.4-2.722,1.261-3.488l1.294-.6a48.937,48.937,0,0,1,8.049-3.188c3.917-1.027,7.981-1.81,11.912-2.567,1.534-.3,3.068-.592,4.6-.9,4.89-.991,7.951-5.063,7.279-9.683a8.608,8.608,0,0,0-8.75-7.428q-.435,0-.88.039a58.743,58.743,0,0,0-6.372.868c-2.612.52-5.25,1.119-7.8,1.7q-1.621.368-3.239.73a3.023,3.023,0,0,1-.643.076,1.687,1.687,0,0,1-1.664-1.254,1.746,1.746,0,0,1,.977-2.381c.209-.114.426-.21.727-.343.177-.079.382-.17.625-.281l1.036-.477-.887-.716c-.513-.414-.995-.812-1.46-1.2-1.006-.831-1.957-1.616-2.949-2.337a2.535,2.535,0,0,1-1.028-3.221c1.131-3.613,2.188-7.145,3.14-10.5a8.388,8.388,0,0,0,.4-3.208,4.562,4.562,0,0,0-4.26-3.913c-.134-.012-.268-.018-.4-.018a4.8,4.8,0,0,0-4.54,3.6c-.587,1.821-1.138,3.683-1.671,5.483-.409,1.384-.82,2.769-1.248,4.148-.491,1.579-1.155,1.9-2.065,1.9a4.938,4.938,0,0,1-.856-.085c-1.2-.214-2.406-.462-3.595-.737-1.715-.4-2.115-.89-2.14-2.632-.017-1.146-.013-2.294-.008-3.441,0-1.422.01-2.892-.025-4.342a8.446,8.446,0,0,0-.54-3,4.492,4.492,0,0,0-4.164-2.712A4.251,4.251,0,0,0,64.112,4a4.572,4.572,0,0,0-3.866,4.487c-.061,1.864-.055,3.755-.05,5.584,0,1.089.006,2.179,0,3.267-.018,1.888-.361,2.345-2.161,2.873-.328.1-.658.185-.989.274l-.53.143a13.622,13.622,0,0,1-3.112.631c-1.01,0-1.374-.363-2.368-3.693l-.54-1.812c-.631-2.125-1.284-4.322-1.967-6.473a4.666,4.666,0,0,0-4.151-3.509c-.174-.015-.348-.023-.52-.023a3.984,3.984,0,0,0-3.978,2.537,7.66,7.66,0,0,0-.157,4.321c1.1,4.192,2.387,8.327,3.719,12.548a2.873,2.873,0,0,1-.812,3.278A56.014,56.014,0,0,0,38.509,32.9c-6.758,8.364-11.055,18.893-13.52,33.133a8.707,8.707,0,0,0,1.868,7.219,8.411,8.411,0,0,0,6.447,3,8.917,8.917,0,0,0,2.468-.354c3.611-1.042,5.655-3.626,6.431-8.133a61.04,61.04,0,0,1,6.257-18.788c1.684-3.137,4.122-7.072,8.067-9.664a15.483,15.483,0,0,1,8.763-2.607,24.769,24.769,0,0,1,7.6,1.341,4.867,4.867,0,0,0,1.49.26,4.064,4.064,0,0,0,2.024-.572c1.833-1.015,3.727-1.877,5.337-2.584a3.646,3.646,0,0,1,1.446-.349,1.717,1.717,0,0,1,1.663,1.128c.484,1.091-.064,2.031-1.626,2.8-.612.3-1.237.585-1.863.87a27.9,27.9,0,0,0-5.116,2.78,5.985,5.985,0,0,1-3.528,1.435,5.427,5.427,0,0,1-3.243-1.3,8.561,8.561,0,0,0-5.185-1.9M18.934,36.75c-2.7,0-4.914.041-6.975.129A8.2,8.2,0,0,0,6.2,39.513a8.831,8.831,0,0,0-2.234,6.439,8.521,8.521,0,0,0,8.786,8.108q.553.006,1.106.006c1.3,0,2.607-.023,3.911-.047l1.534-.026c4.087-.063,4.353-.251,5.692-4.034l.124-.353c.194-.556.379-1.08.6-1.592,1.11-2.555,2.229-5.105,3.363-7.689l1.538-3.506H29.54c-1.785,0-3.562-.018-5.333-.035s-3.52-.034-5.273-.034" transform="translate(0 0)" fill="#97d700"/>
        <path id="Path_3526" data-name="Path 3526" d="M91.953,225.85c-11.4-.622-22.28-4.278-33.272-11.176A110.7,110.7,0,0,1,19.8,172.863a96.932,96.932,0,0,1-4.288-9.549c-.4-.992-.8-1.982-1.216-2.968a2.576,2.576,0,0,1-.134-2,1.745,1.745,0,0,1,1.027-.929,2.228,2.228,0,0,1,.788-.156c1.148,0,1.721,1.133,1.96,1.809A92.681,92.681,0,0,0,29.53,181.411c10.744,15.29,23.241,26.357,38.206,33.831,8.775,4.383,16.927,6.513,24.924,6.513.813,0,1.638-.023,2.449-.068a48.36,48.36,0,0,0,18.988-4.7,26.385,26.385,0,0,0,14.192-17.2c.05-.177.1-.356.144-.535a9.1,9.1,0,0,1,.329-1.09,1.922,1.922,0,0,1,1.75-1.382,2.052,2.052,0,0,1,.612.1,1.876,1.876,0,0,1,1.3,2.364c-1.716,7.251-5.089,12.855-10.31,17.131-5.371,4.4-11.978,7.11-20.792,8.53-2.117.341-4.312.52-6.434.694-.978.08-1.957.16-2.933.255" transform="translate(-4.106 -46.062)" fill="#97d700"/>
        <path id="Path_3527" data-name="Path 3527" d="M66.557,186.558a1.551,1.551,0,0,1-1.693-1.445l-.041-.339a32.757,32.757,0,0,1-.354-6.885A9.587,9.587,0,0,0,62,170.078a78.205,78.205,0,0,1-5.759-8.119c-.737-1.138-1.474-2.277-2.232-3.4a12.938,12.938,0,0,1-.671-1.163c-.105-.2-.209-.393-.317-.586l-.293-.519-1.334.473-.429,2.6c-.268,1.635-.535,3.27-.821,4.9-.175,1-.647,2.182-1.909,2.182a2.44,2.44,0,0,1-.442-.043,1.812,1.812,0,0,1-1.272-.829,2.663,2.663,0,0,1-.217-1.869c.448-2.377.924-4.749,1.4-7.122.46-2.3.92-4.592,1.356-6.893a6.952,6.952,0,0,0-.04-2.654c-.53-2.532-1.088-5.057-1.645-7.583q-.513-2.322-1.019-4.644a7.421,7.421,0,0,1-.127-1.441c-.011-.72.153-2.4,1.875-2.435h.023c.462,0,1.618.035,2.022,2.267.158.875.307,1.752.457,2.631a71.048,71.048,0,0,0,2.022,9.346,76.184,76.184,0,0,0,3.835,9.279q.538,1.154,1.067,2.308a2.971,2.971,0,0,0,2.341,1.421c1.249.047,2.492.053,3.543.053l2.307,0c.94,0,1.878.006,2.816.03,1.946.052,2.073,1.324,2.114,1.742a1.739,1.739,0,0,1-1.409,2.041,2.964,2.964,0,0,1-.821.083l-.557,0c-.768,0-1.536.007-2.348.007l-4.935,0,.906,1.145c.46.581.879,1.149,1.283,1.7a23.949,23.949,0,0,0,2.658,3.2c2.96,2.816,6.046,5.592,9.032,8.276q1.482,1.332,2.961,2.668a8.946,8.946,0,0,0,.768.6,7.858,7.858,0,0,1,.629.487,1.922,1.922,0,0,1,.489,2.772,1.879,1.879,0,0,1-1.479.763,2.32,2.32,0,0,1-1.341-.477c-1.591-1.14-3.156-2.333-4.814-3.6-.721-.55-1.462-1.116-2.233-1.7l-1.133-.856v1.42c0,.387,0,.75-.006,1.1-.007.747-.013,1.452.016,2.15.019.46.065.919.112,1.379.05.493.1.959.11,1.426a1.665,1.665,0,0,1-1.631,1.936,3.094,3.094,0,0,1-.346.021" transform="translate(-13.54 -38.354)" fill="#97d700"/>
      </g>
    </g>
  </g>
</svg>
