<svg xmlns="http://www.w3.org/2000/svg" width="561.654" height="222.231" viewBox="0 0 561.654 222.231">
  <g id="Group_3838" data-name="Group 3838" transform="translate(-147 -1207)">
    <text id="Copy" transform="translate(147 1348.536)" fill="#97d700" font-size="73" font-family="OpenSans-Extrabold, Open Sans" font-weight="800" letter-spacing="-0.03em"><tspan x="0" y="0">3 to 5 years</tspan></text>
    <text id="Copy-2" data-name="Copy" transform="translate(147 1239)" fill="#0b3a40" font-size="30" font-family="OpenSans-Semibold, Open Sans" font-weight="600"><tspan x="0" y="0">ALS ONLY HAS AN AVERAGE </tspan><tspan x="0" y="35">LIFE EXPECTANCY OF </tspan></text>
    <text id="Copy-3" data-name="Copy" transform="translate(198.226 1405.536)" fill="#0b3a40" font-size="32" font-family="OpenSans-Extrabold, Open Sans" font-weight="800" letter-spacing="-0.03em"><tspan x="0" y="0">AFTER DIAGNOSIS</tspan></text>
    <path id="Path_3520" data-name="Path 3520" d="M155.424,1308.467v60.121H614.179v-84.8" transform="translate(23.191 59.543)" fill="none" stroke="#97d700" stroke-width="2.2"/>
    <path id="Path_3524" data-name="Path 3524" d="M422.38,1246.864V1215.3H337.01" transform="translate(214.99 11.687)" fill="none" stroke="#97d700" stroke-width="2.2"/>
    <path id="Subtraction_2" data-name="Subtraction 2" d="M19694.688,3608.071a36.593,36.593,0,0,1-5.4-.435c-15.09-2.246-34.066-7.279-38.779-18.5-1.2-2.866-2.076-9.6-2.533-19.487-.387-8.384-.441-18.8-.154-28.565a53.1,53.1,0,0,1,4.973,3.512c-.184,9.2-.084,18.409.287,25.933.414,8.592,1.146,14.352,2.117,16.657,2.912,6.954,15.611,12.586,34.842,15.45a31.673,31.673,0,0,0,4.6.366c3.7,0,6.482-.817,8.281-2.429a7.63,7.63,0,0,0,2.414-5.566c0-.069,0-.164,0-.232,1.939-46.368-13.9-62.885-20.67-69.937a29.223,29.223,0,0,0-9.846-6.378,30.87,30.87,0,0,0-11.344-2.459,15.071,15.071,0,0,0-4.516.618,6.3,6.3,0,0,0-4.779,5.427c-.373,2.515-.689,6.042-.939,10.483l-.115-.074-.023-.014-.031-.021-.014-.008c-.027-.017-.055-.035-.084-.051-.443-.275-.877-.529-1.488-.885l-.055-.035-.012-.007a24.293,24.293,0,0,1-3.057-1.982c.227-3.374.5-6.114.8-8.143a11.371,11.371,0,0,1,8.262-9.508,20.024,20.024,0,0,1,6.051-.846,36.073,36.073,0,0,1,13.342,2.84,33.849,33.849,0,0,1,11.521,7.549l.006.005c7.2,7.515,24.072,25.112,22.068,73.544a12.674,12.674,0,0,1-4.006,9.37C19703.629,3606.791,19699.688,3608.071,19694.688,3608.071Zm-110.8,0c-5,0-8.945-1.278-11.721-3.8a12.809,12.809,0,0,1-4.006-9.37c-2-48.45,14.869-66.034,22.076-73.542a33.847,33.847,0,0,1,11.523-7.556,36.155,36.155,0,0,1,13.344-2.84,20.225,20.225,0,0,1,6.051.846,11.392,11.392,0,0,1,8.266,9.508c.293,2.013.559,4.752.787,8.143a23.981,23.981,0,0,1-3.029,1.969l-.033.019-.055.035c-.646.373-1.078.629-1.488.886-.068.042-.131.081-.193.124l-.08.044c-.254-4.467-.566-7.994-.932-10.483a6.306,6.306,0,0,0-4.787-5.427,14.977,14.977,0,0,0-4.506-.618,30.849,30.849,0,0,0-11.35,2.459,29.2,29.2,0,0,0-9.84,6.377c-6.766,7.052-22.613,23.567-20.674,69.938a1.073,1.073,0,0,1-.006.2v.04a7.629,7.629,0,0,0,.264,2,7.169,7.169,0,0,0,2.146,3.557c1.8,1.612,4.586,2.429,8.281,2.429a31.788,31.788,0,0,0,4.605-.366c19.23-2.866,31.932-8.5,34.844-15.45.967-2.306,1.7-8.054,2.111-16.622.373-7.57.477-16.764.287-25.889a47.79,47.79,0,0,1,4.982-3.592c.281,9.821.223,20.23-.158,28.56-.457,9.88-1.332,16.62-2.533,19.492-4.715,11.219-23.691,16.251-38.781,18.5A36.144,36.144,0,0,1,19583.891,3608.066Zm88.3-27.932h0c-1.709-11.534-4.721-20.511-9.211-27.447a40.476,40.476,0,0,0-6.812-8.054,49.821,49.821,0,0,0-7.426-5.526c-.369-.232-.8-.494-1.3-.777l-.049-.03-.01,0-.006,0-.02-.012a22.132,22.132,0,0,1-6.738-5.371,19.394,19.394,0,0,0,2.256-4.9c.189-.611.365-1.284.535-2.058a11.092,11.092,0,0,0,1.469,2.969,15.706,15.706,0,0,0,5.43,4.388l.018.01.055.034.023.013.08.046c.471.274.914.534,1.336.8a49.6,49.6,0,0,1,16,15.351c4.98,7.7,8.291,17.439,10.121,29.787l-5.748.792Zm-65.807,0h0l-5.748-.792a94.473,94.473,0,0,1,4.156-17.434,58.343,58.343,0,0,1,6.326-12.937,45.7,45.7,0,0,1,7.555-8.776,55.917,55.917,0,0,1,8.084-5.991c.471-.293.941-.573,1.439-.855l.055-.035.057-.033a15.59,15.59,0,0,0,5.385-4.365,11.149,11.149,0,0,0,1.479-2.973c.145.692.32,1.386.525,2.063a19.878,19.878,0,0,0,2.256,4.908,22.139,22.139,0,0,1-6.768,5.387c-.373.215-.865.5-1.352.806a47.319,47.319,0,0,0-10.592,8.89,45.245,45.245,0,0,0-6.822,10.379,59.438,59.438,0,0,0-4,11.25,100.134,100.134,0,0,0-2.031,10.507Zm58.4-2.7v-.005l-5.4-5.847a25.514,25.514,0,0,0,3.137-3.641,18.458,18.458,0,0,0,2.879-5.724,71.208,71.208,0,0,1,3.271,10.834,32.31,32.31,0,0,1-3.887,4.382Zm-51.135-.138h0a39.594,39.594,0,0,1-3.75-4.491c.23-1.043.434-1.907.623-2.642a61.278,61.278,0,0,1,2.607-8.024,28.67,28.67,0,0,0,6.189,9.573l-5.67,5.585Zm57.041-27.224h0c-.367-.619-.717-1.185-1.043-1.682a49.952,49.952,0,0,0-4.85-6.323,19.729,19.729,0,0,0,2.885.2,32.459,32.459,0,0,0,9.6-1.6l2.717,7.47-.01,0a40.118,40.118,0,0,1-9.3,1.929Zm-62.828,0h0a40.865,40.865,0,0,1-9.3-1.934l2.711-7.48a32.325,32.325,0,0,0,9.588,1.613,20.19,20.19,0,0,0,2.859-.193,47.8,47.8,0,0,0-4.418,5.694c-.486.727-.973,1.5-1.443,2.3Zm31.424-19.151h0a17.716,17.716,0,0,1-1.51-3.546,27.924,27.924,0,0,1-1.072-8.089V3495h5.164v24.286a27.653,27.653,0,0,1-1.078,8.089,17.7,17.7,0,0,1-1.5,3.546Z" transform="translate(-19001.918 -2231.499)" fill="#97d731"/>
  </g>
</svg>
